<?xml version="1.0" encoding="UTF-8"?>
<svg id="_レイヤー_1" data-name="レイヤー_1" xmlns="http://www.w3.org/2000/svg" version="1.1" xmlns:xlink="http://www.w3.org/1999/xlink" viewBox="0 0 132.29 132.29">
  <!-- Generator: Adobe Illustrator 29.8.1, SVG Export Plug-In . SVG Version: 2.1.1 Build 2)  -->
  <defs>
    <style>
      .st0 {
        fill: url(#_名称未設定グラデーション_4012);
      }

      .st1 {
        fill: url(#_名称未設定グラデーション_401);
      }

      .st2 {
        fill: url(#_名称未設定グラデーション_4014);
      }

      .st3 {
        fill: url(#_名称未設定グラデーション_407);
      }

      .st4 {
        fill: url(#_名称未設定グラデーション_4015);
      }

      .st5 {
        fill: url(#_名称未設定グラデーション_402);
      }

      .st6 {
        fill: url(#_名称未設定グラデーション_408);
      }

      .st7 {
        fill: url(#_名称未設定グラデーション_40);
      }

      .st8 {
        fill: url(#_名称未設定グラデーション_4016);
      }

      .st9 {
        fill: url(#_名称未設定グラデーション_405);
      }

      .st10 {
        fill: url(#_名称未設定グラデーション_404);
      }

      .st11 {
        fill: url(#_名称未設定グラデーション_409);
      }

      .st12 {
        fill: url(#_名称未設定グラデーション_406);
      }

      .st13 {
        fill: url(#_名称未設定グラデーション_4011);
      }

      .st14 {
        fill: url(#_名称未設定グラデーション_4010);
      }

      .st15 {
        fill: url(#_名称未設定グラデーション_4013);
      }

      .st16 {
        fill: url(#_名称未設定グラデーション_403);
      }
    </style>
    <linearGradient id="_名称未設定グラデーション_40" data-name="名称未設定グラデーション 40" x1="17.19" y1="9.16" x2="17.19" y2="125.4" gradientUnits="userSpaceOnUse">
      <stop offset="0" stop-color="#2e3192"/>
      <stop offset="1" stop-color="#29abe2"/>
    </linearGradient>
    <linearGradient id="_名称未設定グラデーション_401" data-name="名称未設定グラデーション 40" x1="43.97" y1="9.16" x2="43.97" y2="125.4" xlink:href="#_名称未設定グラデーション_40"/>
    <linearGradient id="_名称未設定グラデーション_402" data-name="名称未設定グラデーション 40" x1="67.7" y1="9.16" x2="67.7" y2="125.4" xlink:href="#_名称未設定グラデーション_40"/>
    <linearGradient id="_名称未設定グラデーション_403" data-name="名称未設定グラデーション 40" x1="90.56" y1="9.16" x2="90.56" y2="125.4" xlink:href="#_名称未設定グラデーション_40"/>
    <linearGradient id="_名称未設定グラデーション_404" data-name="名称未設定グラデーション 40" x1="10.35" y1="9.16" x2="10.35" y2="125.4" xlink:href="#_名称未設定グラデーション_40"/>
    <linearGradient id="_名称未設定グラデーション_405" data-name="名称未設定グラデーション 40" x1="35.52" y1="9.16" x2="35.52" y2="125.4" xlink:href="#_名称未設定グラデーション_40"/>
    <linearGradient id="_名称未設定グラデーション_406" data-name="名称未設定グラデーション 40" x1="77.45" y1="9.16" x2="77.45" y2="125.4" xlink:href="#_名称未設定グラデーション_40"/>
    <linearGradient id="_名称未設定グラデーション_407" data-name="名称未設定グラデーション 40" x1="77.45" y1="9.16" x2="77.45" y2="125.4" xlink:href="#_名称未設定グラデーション_40"/>
    <linearGradient id="_名称未設定グラデーション_408" data-name="名称未設定グラデーション 40" x1="60.2" y1="9.16" x2="60.2" y2="125.4" xlink:href="#_名称未設定グラデーション_40"/>
    <linearGradient id="_名称未設定グラデーション_409" data-name="名称未設定グラデーション 40" x1="125.63" y1="9.16" x2="125.63" y2="125.4" xlink:href="#_名称未設定グラデーション_40"/>
    <linearGradient id="_名称未設定グラデーション_4010" data-name="名称未設定グラデーション 40" x1="113.62" y1="9.16" x2="113.62" y2="125.4" xlink:href="#_名称未設定グラデーション_40"/>
    <linearGradient id="_名称未設定グラデーション_4011" data-name="名称未設定グラデーション 40" x1="102.14" y1="9.16" x2="102.14" y2="125.4" xlink:href="#_名称未設定グラデーション_40"/>
    <linearGradient id="_名称未設定グラデーション_4012" data-name="名称未設定グラデーション 40" x1="20.11" y1="9.16" x2="20.11" y2="125.4" xlink:href="#_名称未設定グラデーション_40"/>
    <linearGradient id="_名称未設定グラデーション_4013" data-name="名称未設定グラデーション 40" x1="27.34" y1="9.16" x2="27.34" y2="125.4" xlink:href="#_名称未設定グラデーション_40"/>
    <linearGradient id="_名称未設定グラデーション_4014" data-name="名称未設定グラデーション 40" x1="21.73" y1="9.16" x2="21.73" y2="125.4" xlink:href="#_名称未設定グラデーション_40"/>
    <linearGradient id="_名称未設定グラデーション_4015" data-name="名称未設定グラデーション 40" x1="25.11" x2="25.11" y2="125.4" xlink:href="#_名称未設定グラデーション_40"/>
    <linearGradient id="_名称未設定グラデーション_4016" data-name="名称未設定グラデーション 40" x1="28.34" y1="9.16" x2="28.34" y2="125.4" xlink:href="#_名称未設定グラデーション_40"/>
  </defs>
  <path class="st7" d="M31.1,29.02h-11.77v-8.64c0-2.51-.13-4.08-.38-4.71-.25-.62-.81-.93-1.66-.93-.97,0-1.58.38-1.85,1.14-.26.76-.39,2.4-.39,4.91v23.1c0,2.42.13,3.99.39,4.73.26.74.85,1.11,1.76,1.11s1.45-.37,1.72-1.11c.27-.74.41-2.47.41-5.2v-6.25h11.77v1.94c0,5.15-.33,8.8-.99,10.95-.66,2.15-2.12,4.04-4.39,5.66-2.26,1.62-5.05,2.43-8.37,2.43s-6.29-.69-8.52-2.06c-2.24-1.37-3.72-3.27-4.44-5.7-.73-2.43-1.09-6.08-1.09-10.95v-14.53c0-3.58.11-6.27.34-8.06.22-1.79.89-3.52,2-5.18,1.11-1.66,2.65-2.96,4.61-3.92,1.97-.95,4.23-1.43,6.78-1.43,3.47,0,6.33.74,8.58,2.21,2.25,1.47,3.74,3.31,4.44,5.51.71,2.2,1.06,5.62,1.06,10.26v4.72Z"/>
  <path class="st1" d="M46.27,16.33l-.45,5.36c1.64-3.84,4.02-5.87,7.13-6.1v14.34c-2.07,0-3.59.31-4.56.92-.97.61-1.57,1.47-1.79,2.56-.22,1.1-.34,3.62-.34,7.57v16.1h-11.29V16.33h11.29Z"/>
  <path class="st5" d="M65.56,32.12h-10.59v-2.73c0-3.15.33-5.58.99-7.29.66-1.71,1.99-3.22,3.98-4.53,1.99-1.31,4.58-1.97,7.77-1.97,3.82,0,6.7.74,8.64,2.23,1.94,1.49,3.1,3.31,3.49,5.47s.59,6.61.59,13.35v20.46h-10.99v-3.63c-.69,1.46-1.58,2.55-2.67,3.28-1.09.73-2.39,1.09-3.9,1.09-1.98,0-3.79-.61-5.44-1.83s-2.47-3.89-2.47-8v-3.35c0-3.05.44-5.13,1.31-6.24.88-1.11,3.05-2.4,6.51-3.87,3.71-1.6,5.69-2.67,5.95-3.22.26-.55.39-1.68.39-3.38,0-2.13-.14-3.52-.43-4.16-.29-.64-.77-.97-1.44-.97-.76,0-1.24.27-1.43.81-.19.54-.28,1.95-.28,4.22v4.27ZM69.14,37.71c-1.81,1.45-2.86,2.67-3.14,3.66-.29.98-.43,2.4-.43,4.24,0,2.11.13,3.47.38,4.08.25.61.75.92,1.5.92.71,0,1.17-.24,1.38-.72.21-.48.32-1.75.32-3.79v-8.39Z"/>
  <path class="st16" d="M98.71,7.36v6.3c-2.33,0-3.7.12-4.12.35-.42.24-.63.91-.63,2.01v1.29h4.75v6.45h-2.68v33.33h-11.29V23.76h-2.32v-6.45h2.32c0-2.68.08-4.47.25-5.38.17-.9.58-1.71,1.24-2.41.66-.71,1.59-1.24,2.78-1.61s3.05-.55,5.56-.55h4.14Z"/>
  <path class="st10" d="M19.3,75.51v6.3c-2.56,0-4.07.12-4.53.35-.46.24-.69.91-.69,2.01v1.29h5.22v6.45h-2.95v33.33H3.94v-33.33H1.39v-6.45h2.55c0-2.68.09-4.47.28-5.38.18-.9.64-1.7,1.37-2.41.73-.71,1.75-1.24,3.06-1.61,1.31-.37,3.35-.55,6.11-.55h4.55Z"/>
  <path class="st9" d="M49.74,98.79v9.98c0,3.67-.18,6.35-.55,8.06-.37,1.71-1.16,3.31-2.36,4.79-1.21,1.48-2.76,2.58-4.65,3.29-1.89.71-4.07,1.06-6.53,1.06-2.74,0-5.07-.3-6.97-.91-1.9-.6-3.38-1.52-4.44-2.73-1.06-1.22-1.81-2.69-2.26-4.42-.45-1.73-.68-4.33-.68-7.79v-10.44c0-3.79.41-6.75,1.23-8.88.82-2.13,2.29-3.84,4.42-5.13,2.13-1.29,4.85-1.94,8.17-1.94,2.78,0,5.18.42,7.17,1.24s3.54,1.91,4.62,3.24c1.08,1.33,1.83,2.7,2.23,4.12.4,1.41.6,3.56.6,6.45ZM37.33,95.72c0-2.09-.11-3.4-.34-3.95s-.71-.81-1.44-.81-1.23.27-1.47.81-.37,1.86-.37,3.95v18.4c0,1.92.12,3.18.37,3.76s.73.88,1.44.88,1.22-.27,1.46-.8c.24-.53.35-1.68.35-3.44v-18.8Z"/>
  <rect class="st12" x="71.06" y="75.51" width="12.78" height="6.48"/>
  <rect class="st3" x="71.06" y="84.48" width="12.78" height="40.76"/>
  <path class="st6" d="M66.45,85.88l-2.14-5.34-3.56-7.51c-.13-.27-.39-.44-.69-.44h0c-.3,0-.57.18-.69.45l-3.39,7.55-2.03,5.3c-.05.12-.06.25-.04.37,0,.03-.02.05-.02.08v38.13c0,.42.34.76.76.76h11.08c.42,0,.76-.34.76-.76v-38.13s-.01-.04-.01-.06c.02-.13.01-.27-.04-.4ZM57.39,81.18l.14-.31h5.25l.13.28,1.7,4.25h-8.84l1.62-4.23Z"/>
  <path class="st11" d="M130.76,50c-.5-2.23-2.6-5.82-9.78-10.31-.07-.04-.14-.06-.21-.06-.11,0-.23.05-.3.14-.13.15-.12.37.01.52,2.73,2.88,3.3,6.69,3.6,9.72.14.02.27.05.41.07.14.02.27.04.4.06.52.08,1.01.13,1.45.13.38,0,.71-.04.96-.14.17-.07.35-.1.52-.1.4,0,.79.17,1.06.48.39.45.45,1.09.14,1.59-.09.14-.17.28-.26.42-.58.88-1.24,1.67-1.95,2.36-.15.14-.29.28-.44.41-.13.12-.27.23-.4.34.13.03.28.05.43.05.01,0,.03,0,.04,0,1.48,0,2.96-.79,3.77-2.02.67-1.03.87-2.29.56-3.65Z"/>
  <path class="st14" d="M126.92,53.32c.09-.11.18-.21.27-.32.04-.05.07-.1.11-.15.21-.27.41-.55.61-.85h0c.08-.13.17-.26.25-.39.09-.14.07-.33-.04-.45-.08-.09-.19-.14-.3-.14-.05,0-.1,0-.15.03-.07.03-.14.05-.21.07-.33.1-.71.14-1.13.14s-.87-.04-1.34-.1c-.13-.02-.27-.04-.4-.06s-.27-.04-.41-.07c-.36-.06-.72-.13-1.08-.2-.13-.02-.26-.05-.39-.07-.92-.17-1.85-.33-2.68-.35-.09,0-.17,0-.25,0-.09,0-.18,0-.27,0-.83.04-1.47.24-1.95.61-.27-.26-.59-.43-.93-.49-.08-.02-.16-.02-.23-.03l-.44.02c-1.62-.02-2.55-.17-2.79-.46-.25-.31-.38-1.8-.38-4.48v-21.81h3.05v-6.45h-3.05v-6.42h-11.32v6.42h-2.43v6.45h2.43v20.7c0,4.05.1,6.63.31,7.72.21,1.1.73,2.07,1.57,2.92.84.85,1.81,1.39,2.91,1.63,1.1.24,2.93.35,5.51.35h4.56v-.02c.28-.02.55-.1.8-.26.26-.16.5-.4.71-.69.65.49,1.51.75,2.49.75.18,0,.37,0,.56-.03,0,0,0,0,0,0,.16-.02.32-.04.48-.07.01,0,.02,0,.03,0,.15-.03.3-.06.45-.09.02,0,.04,0,.05-.01.47-.12.93-.28,1.39-.49.01,0,.02-.01.03-.02.15-.07.29-.14.44-.22,0,0,0,0,.01,0,.46-.24.91-.54,1.34-.87.1-.08.21-.17.31-.25.05-.04.1-.08.15-.12.02-.02.04-.04.07-.06.03-.03.06-.06.09-.08.38-.33.74-.7,1.09-1.09.04-.04.08-.09.12-.14ZM120.31,56.09s-.01,0-.02,0c-.86,0-1.59-.23-2.11-.67.15-.37.26-.77.31-1.19.01-.11.02-.22.03-.33.02-.39-.01-.77-.09-1.14-.08-.41-.22-.79-.41-1.13t0,0s0,0,.01,0c0,0,.02-.01.03-.02,0,0,0,0,0,0,0,0,0,0,0,0,0,0,.02-.01.03-.02.04-.03.08-.06.13-.09.02-.01.04-.02.06-.03h0c.05-.03.1-.05.16-.08,0,0,0,0,0,0,.02,0,.04-.02.06-.02,0,0,0,0,0,0s0,0,0,0c.08-.03.16-.05.24-.08h0s.01,0,.02,0c.08-.02.16-.04.25-.05,0,0,0,0,0,0,0,0,0,0,0,0,0,0,0,0,0,0,.03,0,.06,0,.09-.01.05,0,.1-.01.15-.02.03,0,.05,0,.07,0h0s.06,0,.09,0c.1,0,.2,0,.3,0,.01,0,.02,0,.04,0,0,.01.01.02.02.03,0,.01.01.02.02.03.01.02.03.04.04.06.03.04.05.08.08.12.02.03.04.06.05.08,0,0,0,0,0,0,0,0,0,0,0,0,.02.02.03.05.05.07,0,0,.01.02.02.03.01.02.02.03.03.05,0,0,.01.02.02.03.01.02.02.03.03.05.01.02.02.03.03.04t0,0s0,0,0,0c.02.02.03.04.05.06.01.02.02.03.04.05,0,.01.02.02.03.03.02.02.03.04.04.06,0,0,0,0,0,0,.02.02.04.04.05.06,0,0,.01.02.02.03,0,0,.01.01.02.02,0,0,.02.02.02.03.01.01.02.03.03.04.01.01.02.02.03.03.03.03.05.06.08.08l-.56,1.12c-.09.18-.03.39.14.5l.75.47-.61,1.72Z"/>
  <path class="st13" d="M115.77,92.34c-.4-1.41-1.14-2.78-2.23-4.12-1.09-1.33-2.63-2.41-4.62-3.24-2-.83-4.39-1.24-7.17-1.24-3.32,0-6.04.65-8.17,1.94-2.13,1.29-3.6,3-4.42,5.13-.82,2.13-1.23,5.09-1.23,8.88v10.44c0,3.46.23,6.06.68,7.79.45,1.73,1.2,3.2,2.26,4.42,1.05,1.22,2.53,2.13,4.44,2.73,1.9.6,4.23.91,6.97.91,2.46,0,4.63-.35,6.53-1.06,1.89-.71,3.45-1.8,4.65-3.29,1.21-1.48,2-3.08,2.36-4.79.37-1.71.55-4.4.55-8.06v-9.98c0-2.89-.2-5.04-.6-6.45ZM101.45,95.1v3.08c-.56.26-.96.83-.96,1.49s.39,1.23.96,1.49v2.98h-6.18c.23-4.75,2.86-8.57,6.18-9.04ZM102.14,114.61c-3.64,0-6.62-4.01-6.87-9.09h13.74c-.25,5.08-3.23,9.09-6.87,9.09ZM102.83,104.14v-2.98c.56-.26.96-.83.96-1.49s-.39-1.23-.96-1.49v-3.08c3.32.47,5.94,4.29,6.18,9.04h-6.18Z"/>
  <g>
    <path class="st0" d="M21.13,75.76c0-.07-.03-.13-.07-.17s-.11-.07-.17-.07h-1.53c-.14,0-.25.1-.25.24l-.03,5.8c0,.14.11.25.24.25h1.53c.07,0,.13-.02.17-.06s.07-.11.07-.17l.03-5.8ZM19.57,81.31l.03-5.31h1.04s-.03,5.32-.03,5.32h-1.04Z"/>
    <path class="st15" d="M30.35,80.89c.91-.5,1.71-.99,2.23-1.3.36-.22.58-.37.58-.37.01,0,.03-.02.04-.03.06-.06.09-.16.06-.24-.03-.1-.13-.18-.23-.18l-4.63-.04c-.07-.03-.14-.03-.21,0-.07.03-.11.09-.13.16-.09.4-.47.7-.89.7-.5,0-.9-.41-.9-.91,0-.48.43-.9.91-.9.43,0,.79.29.88.71.02.07.06.13.13.17.06.03.14.04.21,0h.03s4.6.01,4.6.01c.11,0,.21-.07.24-.17.03-.1,0-.22-.1-.28-.71-.47-6.96-4.54-8.49-3.61-1.4.84-3.04,1.27-3.06,1.27-.11.03-.18.12-.18.24l-.03,5.06c0,.11.07.21.18.24.02,0,1.66.45,3.04,1.31.28.17,1.12.69,5.72-1.85ZM30.11,80.46c-3.92,2.17-4.96,2.03-5.22,1.87-1.19-.73-2.51-1.17-2.99-1.31l.02-4.69c.48-.14,1.81-.56,3.01-1.28.87-.53,4.65,1.5,7.26,3.15l-3.72-.02c-.21-.52-.71-.87-1.29-.87-.75,0-1.4.64-1.4,1.39,0,.77.62,1.4,1.39,1.4.56,0,1.08-.35,1.29-.86l3.71.02c-.51.31-1.25.75-2.07,1.2Z"/>
  </g>
  <g>
    <polygon class="st2" points="20.11 33.57 23.35 35.28 23.35 34.52 21.01 33.33 23.35 32.12 23.35 31.37 20.11 33.07 20.11 33.57"/>
    <polygon class="st4" points="23.79 35.42 24.51 35.42 26.42 30.51 25.69 30.51 23.79 35.42"/>
    <polygon class="st8" points="26.72 31.37 26.72 32.12 29.07 33.33 26.72 34.52 26.72 35.27 29.97 33.58 29.97 33.07 26.72 31.37"/>
  </g>
</svg>