<?xml version="1.0" encoding="UTF-8"?>
<svg id="_レイヤー_1" data-name="レイヤー_1" xmlns="http://www.w3.org/2000/svg" version="1.1" viewBox="0 0 375 375">
  <!-- Generator: Adobe Illustrator 29.7.1, SVG Export Plug-In . SVG Version: 2.1.1 Build 8)  -->
  <defs>
    <style>
      .st0 {
        fill: #181818;
      }

      .st1 {
        fill: #f4c41d;
      }
    </style>
  </defs>
  <polygon class="st0" points="5.81 353.44 39.97 353.44 39.97 278.29 70.71 278.29 70.71 245.84 39.97 245.84 39.97 218.52 72.42 218.52 72.42 186.07 5.81 186.07 5.81 353.44"/>
  <polygon class="st0" points="198.81 324.41 198.81 186.07 166.36 186.07 166.36 353.44 234.67 353.44 234.67 326.97 232.11 324.41 198.81 324.41"/>
  <rect class="st0" x="241.5" y="186.07" width="32.45" height="167.37"/>
  <path class="st0" d="M258.58,47.73v116.14h29.03V47.73c0-.85,17.08.85,17.08,0v-27.33h-63.19v27.33c0,.85,17.08-.85,17.08,0Z"/>
  <path class="st1" d="M84.37,53.7l.12,273.16c9.78,38.29,62.07,37.27,69.92-1.6l.04-273.31c-.61-4.98-5.76-15.33-9.18-19.01-19.41-20.92-58.17-8.35-60.89,20.75ZM135.65,321.88c-2.29,19.35-29.19,18.77-32.56.04l.04-264.84c1.51-13.93,18.56-21.27,28.54-10.54,2.46,2.65,4,8.5,4.04,12.2l-.05,263.14Z"/>
  <path class="st0" d="M54.49,20.4H7.52v143.46h27.33v-56.36c13.12.3,28.97.33,36.22-12.45,8.59-15.15,8.78-53.77-3.79-66.95-1.84-1.93-10.85-7.7-12.79-7.7ZM48.59,67.46c-.85,10.14-2.87,14.77-13.75,12.71v-34.16c14-2.06,14.66,10.54,13.75,21.44Z"/>
  <path class="st0" d="M365.7,209.6c-8.36-27.68-50.57-32.75-68.94-14.38-6.18,6.18-9.99,17.23-10.84,25.88-1.89,19.19-2.33,92.18,2.88,108.1,12.67,38.73,73.76,33.69,78.89-9.25,2.11-17.63,2.42-95.74-2-110.35ZM335.41,309.87c-2.09,21.02-15.35,19.6-17.11-1.62-1.67-20.13-2-60.51.06-80.33.54-5.18,1.97-11.71,8.08-12.57,7.47-1.05,8.6,9.24,9.06,14.21,1.81,19.8,1.87,60.61-.09,80.31Z"/>
  <path class="st0" d="M218.45,20.4c-14.76-2.61-36.51,1.93-52.09,0v143.46h29.03v-64.9c4.2-1.37,11.96,1.33,11.96,5.98v58.92h27.33v-64.05c0-4.86-10.97-8.98-10.26-11.94.22-.91,9.78-5.28,11.58-14.07,3.11-15.28,2.34-49.89-17.54-53.41ZM195.39,73.34c1.22-6.52-1.68-19.28,0-24.76,1.15-3.75,9.12-2.86,11.55-.44,5.64,5.64,3.45,31.73-11.55,25.2Z"/>
</svg>